<svg xmlns="http://www.w3.org/2000/svg" viewBox="0 0 24 24" fill="currentColor">
  <!-- 火焰图标 -->
  <path d="M12 23C16.5 23 20 19.5 20 15C20 11.5 18 8 16 5.5C15 4 14 2.5 14 2C14 2 13.5 3 13 4C12.5 3 12 2 12 2C12 2 11.5 3 11 4C10.5 3 10 2 10 2C10 2.5 9 4 8 5.5C6 8 4 11.5 4 15C4 19.5 7.5 23 12 23Z" fill="#FF6B35"/>
  <path d="M12 21C14.5 21 16.5 19 16.5 16.5C16.5 14 15 12 14 10.5C13.5 9.5 13 8.5 13 8C13 8 12.5 9 12 9.5C11.5 9 11 8 11 8C11 8.5 10.5 9.5 10 10.5C9 12 7.5 14 7.5 16.5C7.5 19 9.5 21 12 21Z" fill="#FFD93D"/>
  <path d="M12 19C13.4 19 14.5 17.9 14.5 16.5C14.5 15 13.5 14 13 13C12.5 13.5 12 14 12 14C12 14 11.5 13.5 11 13C10.5 14 9.5 15 9.5 16.5C9.5 17.9 10.6 19 12 19Z" fill="#FFF8E1"/>
</svg>
